<mxfile host="app.diagrams.net" agent="Mozilla/5.0 (Windows NT 10.0; Win64; x64) AppleWebKit/537.36 (KHTML, like Gecko) Chrome/139.0.0.0 Safari/537.36" version="28.1.0">
  <diagram name="Page-1" id="l1QqNkSyNbdZpXpyAvMG">
    <mxGraphModel grid="1" page="1" gridSize="10" guides="1" tooltips="1" connect="1" arrows="1" fold="1" pageScale="1" pageWidth="1169" pageHeight="827" math="0" shadow="0">
      <root>
        <mxCell id="0" />
        <mxCell id="1" parent="0" />
        <mxCell id="y-crHEPFylXZ4RfV_5lv-5" value="Client" style="swimlane;fontStyle=1;align=center;verticalAlign=top;childLayout=stackLayout;horizontal=1;startSize=26;horizontalStack=0;resizeParent=1;resizeParentMax=0;resizeLast=0;collapsible=1;marginBottom=0;whiteSpace=wrap;html=1;" vertex="1" parent="1">
          <mxGeometry x="40" y="74" width="160" height="86" as="geometry" />
        </mxCell>
        <mxCell id="y-crHEPFylXZ4RfV_5lv-6" value="+ field: type" style="text;strokeColor=none;fillColor=none;align=left;verticalAlign=top;spacingLeft=4;spacingRight=4;overflow=hidden;rotatable=0;points=[[0,0.5],[1,0.5]];portConstraint=eastwest;whiteSpace=wrap;html=1;" vertex="1" parent="y-crHEPFylXZ4RfV_5lv-5">
          <mxGeometry y="26" width="160" height="26" as="geometry" />
        </mxCell>
        <mxCell id="y-crHEPFylXZ4RfV_5lv-7" value="" style="line;strokeWidth=1;fillColor=none;align=left;verticalAlign=middle;spacingTop=-1;spacingLeft=3;spacingRight=3;rotatable=0;labelPosition=right;points=[];portConstraint=eastwest;strokeColor=inherit;" vertex="1" parent="y-crHEPFylXZ4RfV_5lv-5">
          <mxGeometry y="52" width="160" height="8" as="geometry" />
        </mxCell>
        <mxCell id="y-crHEPFylXZ4RfV_5lv-8" value="+ method(type): type" style="text;strokeColor=none;fillColor=none;align=left;verticalAlign=top;spacingLeft=4;spacingRight=4;overflow=hidden;rotatable=0;points=[[0,0.5],[1,0.5]];portConstraint=eastwest;whiteSpace=wrap;html=1;" vertex="1" parent="y-crHEPFylXZ4RfV_5lv-5">
          <mxGeometry y="60" width="160" height="26" as="geometry" />
        </mxCell>
        <mxCell id="y-crHEPFylXZ4RfV_5lv-9" value="Account" style="swimlane;fontStyle=1;align=center;verticalAlign=top;childLayout=stackLayout;horizontal=1;startSize=26;horizontalStack=0;resizeParent=1;resizeParentMax=0;resizeLast=0;collapsible=1;marginBottom=0;whiteSpace=wrap;html=1;" vertex="1" parent="1">
          <mxGeometry x="360" y="70" width="160" height="86" as="geometry" />
        </mxCell>
        <mxCell id="y-crHEPFylXZ4RfV_5lv-51" value="" style="endArrow=none;html=1;edgeStyle=orthogonalEdgeStyle;rounded=0;" edge="1" parent="y-crHEPFylXZ4RfV_5lv-9">
          <mxGeometry relative="1" as="geometry">
            <mxPoint x="70" y="-19" as="sourcePoint" />
            <mxPoint x="70" y="-30" as="targetPoint" />
            <Array as="points">
              <mxPoint x="70" y="2" />
            </Array>
          </mxGeometry>
        </mxCell>
        <mxCell id="y-crHEPFylXZ4RfV_5lv-52" value="parent" style="edgeLabel;resizable=0;html=1;align=left;verticalAlign=bottom;" connectable="0" vertex="1" parent="y-crHEPFylXZ4RfV_5lv-51">
          <mxGeometry x="-1" relative="1" as="geometry">
            <mxPoint y="8" as="offset" />
          </mxGeometry>
        </mxCell>
        <mxCell id="y-crHEPFylXZ4RfV_5lv-53" value="child" style="edgeLabel;resizable=0;html=1;align=right;verticalAlign=bottom;" connectable="0" vertex="1" parent="y-crHEPFylXZ4RfV_5lv-51">
          <mxGeometry x="1" relative="1" as="geometry" />
        </mxCell>
        <mxCell id="y-crHEPFylXZ4RfV_5lv-10" value="+ field: type" style="text;strokeColor=none;fillColor=none;align=left;verticalAlign=top;spacingLeft=4;spacingRight=4;overflow=hidden;rotatable=0;points=[[0,0.5],[1,0.5]];portConstraint=eastwest;whiteSpace=wrap;html=1;" vertex="1" parent="y-crHEPFylXZ4RfV_5lv-9">
          <mxGeometry y="26" width="160" height="26" as="geometry" />
        </mxCell>
        <mxCell id="y-crHEPFylXZ4RfV_5lv-11" value="" style="line;strokeWidth=1;fillColor=none;align=left;verticalAlign=middle;spacingTop=-1;spacingLeft=3;spacingRight=3;rotatable=0;labelPosition=right;points=[];portConstraint=eastwest;strokeColor=inherit;" vertex="1" parent="y-crHEPFylXZ4RfV_5lv-9">
          <mxGeometry y="52" width="160" height="8" as="geometry" />
        </mxCell>
        <mxCell id="y-crHEPFylXZ4RfV_5lv-12" value="+ method(type): type" style="text;strokeColor=none;fillColor=none;align=left;verticalAlign=top;spacingLeft=4;spacingRight=4;overflow=hidden;rotatable=0;points=[[0,0.5],[1,0.5]];portConstraint=eastwest;whiteSpace=wrap;html=1;" vertex="1" parent="y-crHEPFylXZ4RfV_5lv-9">
          <mxGeometry y="60" width="160" height="26" as="geometry" />
        </mxCell>
        <mxCell id="y-crHEPFylXZ4RfV_5lv-13" value="Portfolio" style="swimlane;fontStyle=1;align=center;verticalAlign=top;childLayout=stackLayout;horizontal=1;startSize=26;horizontalStack=0;resizeParent=1;resizeParentMax=0;resizeLast=0;collapsible=1;marginBottom=0;whiteSpace=wrap;html=1;" vertex="1" parent="1">
          <mxGeometry x="334" y="309" width="160" height="86" as="geometry" />
        </mxCell>
        <mxCell id="y-crHEPFylXZ4RfV_5lv-14" value="+ field: type" style="text;strokeColor=none;fillColor=none;align=left;verticalAlign=top;spacingLeft=4;spacingRight=4;overflow=hidden;rotatable=0;points=[[0,0.5],[1,0.5]];portConstraint=eastwest;whiteSpace=wrap;html=1;" vertex="1" parent="y-crHEPFylXZ4RfV_5lv-13">
          <mxGeometry y="26" width="160" height="26" as="geometry" />
        </mxCell>
        <mxCell id="y-crHEPFylXZ4RfV_5lv-15" value="" style="line;strokeWidth=1;fillColor=none;align=left;verticalAlign=middle;spacingTop=-1;spacingLeft=3;spacingRight=3;rotatable=0;labelPosition=right;points=[];portConstraint=eastwest;strokeColor=inherit;" vertex="1" parent="y-crHEPFylXZ4RfV_5lv-13">
          <mxGeometry y="52" width="160" height="8" as="geometry" />
        </mxCell>
        <mxCell id="y-crHEPFylXZ4RfV_5lv-16" value="+ method(type): type" style="text;strokeColor=none;fillColor=none;align=left;verticalAlign=top;spacingLeft=4;spacingRight=4;overflow=hidden;rotatable=0;points=[[0,0.5],[1,0.5]];portConstraint=eastwest;whiteSpace=wrap;html=1;" vertex="1" parent="y-crHEPFylXZ4RfV_5lv-13">
          <mxGeometry y="60" width="160" height="26" as="geometry" />
        </mxCell>
        <mxCell id="y-crHEPFylXZ4RfV_5lv-17" value="Asset" style="swimlane;fontStyle=1;align=center;verticalAlign=top;childLayout=stackLayout;horizontal=1;startSize=26;horizontalStack=0;resizeParent=1;resizeParentMax=0;resizeLast=0;collapsible=1;marginBottom=0;whiteSpace=wrap;html=1;" vertex="1" parent="1">
          <mxGeometry x="40" y="310" width="160" height="112" as="geometry" />
        </mxCell>
        <mxCell id="y-crHEPFylXZ4RfV_5lv-18" value="+ field: type" style="text;strokeColor=none;fillColor=none;align=left;verticalAlign=top;spacingLeft=4;spacingRight=4;overflow=hidden;rotatable=0;points=[[0,0.5],[1,0.5]];portConstraint=eastwest;whiteSpace=wrap;html=1;" vertex="1" parent="y-crHEPFylXZ4RfV_5lv-17">
          <mxGeometry y="26" width="160" height="26" as="geometry" />
        </mxCell>
        <mxCell id="y-crHEPFylXZ4RfV_5lv-19" value="" style="line;strokeWidth=1;fillColor=none;align=left;verticalAlign=middle;spacingTop=-1;spacingLeft=3;spacingRight=3;rotatable=0;labelPosition=right;points=[];portConstraint=eastwest;strokeColor=inherit;" vertex="1" parent="y-crHEPFylXZ4RfV_5lv-17">
          <mxGeometry y="52" width="160" height="8" as="geometry" />
        </mxCell>
        <mxCell id="WG4AnXz3ScPYK9b0lDrP-40" value="+ method(type): type" style="text;strokeColor=none;fillColor=none;align=left;verticalAlign=top;spacingLeft=4;spacingRight=4;overflow=hidden;rotatable=0;points=[[0,0.5],[1,0.5]];portConstraint=eastwest;whiteSpace=wrap;html=1;" vertex="1" parent="y-crHEPFylXZ4RfV_5lv-17">
          <mxGeometry y="60" width="160" height="26" as="geometry" />
        </mxCell>
        <mxCell id="y-crHEPFylXZ4RfV_5lv-20" value="+ method(type): type" style="text;strokeColor=none;fillColor=none;align=left;verticalAlign=top;spacingLeft=4;spacingRight=4;overflow=hidden;rotatable=0;points=[[0,0.5],[1,0.5]];portConstraint=eastwest;whiteSpace=wrap;html=1;" vertex="1" parent="y-crHEPFylXZ4RfV_5lv-17">
          <mxGeometry y="86" width="160" height="26" as="geometry" />
        </mxCell>
        <mxCell id="y-crHEPFylXZ4RfV_5lv-27" value="has" style="endArrow=open;html=1;endSize=12;startArrow=diamondThin;startSize=14;startFill=0;edgeStyle=orthogonalEdgeStyle;rounded=0;exitDx=0;exitDy=0;entryDx=0;entryDy=0;entryPerimeter=0;" edge="1" parent="1" source="y-crHEPFylXZ4RfV_5lv-9" target="y-crHEPFylXZ4RfV_5lv-6">
          <mxGeometry relative="1" as="geometry">
            <mxPoint x="420" y="52.5" as="sourcePoint" />
            <mxPoint x="270" y="53" as="targetPoint" />
            <Array as="points">
              <mxPoint x="360" y="120" />
              <mxPoint x="280" y="120" />
              <mxPoint x="280" y="121" />
            </Array>
          </mxGeometry>
        </mxCell>
        <mxCell id="y-crHEPFylXZ4RfV_5lv-28" value="0..n" style="edgeLabel;resizable=0;html=1;align=left;verticalAlign=top;" connectable="0" vertex="1" parent="y-crHEPFylXZ4RfV_5lv-27">
          <mxGeometry x="-1" relative="1" as="geometry" />
        </mxCell>
        <mxCell id="y-crHEPFylXZ4RfV_5lv-29" value="1" style="edgeLabel;resizable=0;html=1;align=right;verticalAlign=top;" connectable="0" vertex="1" parent="y-crHEPFylXZ4RfV_5lv-27">
          <mxGeometry x="1" relative="1" as="geometry" />
        </mxCell>
        <mxCell id="y-crHEPFylXZ4RfV_5lv-30" value="Brokerage " style="swimlane;fontStyle=1;align=center;verticalAlign=top;childLayout=stackLayout;horizontal=1;startSize=26;horizontalStack=0;resizeParent=1;resizeParentMax=0;resizeLast=0;collapsible=1;marginBottom=0;whiteSpace=wrap;html=1;" vertex="1" parent="1">
          <mxGeometry x="600" y="10" width="160" height="86" as="geometry" />
        </mxCell>
        <mxCell id="y-crHEPFylXZ4RfV_5lv-31" value="+ field: type" style="text;strokeColor=none;fillColor=none;align=left;verticalAlign=top;spacingLeft=4;spacingRight=4;overflow=hidden;rotatable=0;points=[[0,0.5],[1,0.5]];portConstraint=eastwest;whiteSpace=wrap;html=1;" vertex="1" parent="y-crHEPFylXZ4RfV_5lv-30">
          <mxGeometry y="26" width="160" height="26" as="geometry" />
        </mxCell>
        <mxCell id="y-crHEPFylXZ4RfV_5lv-32" value="" style="line;strokeWidth=1;fillColor=none;align=left;verticalAlign=middle;spacingTop=-1;spacingLeft=3;spacingRight=3;rotatable=0;labelPosition=right;points=[];portConstraint=eastwest;strokeColor=inherit;" vertex="1" parent="y-crHEPFylXZ4RfV_5lv-30">
          <mxGeometry y="52" width="160" height="8" as="geometry" />
        </mxCell>
        <mxCell id="y-crHEPFylXZ4RfV_5lv-33" value="+ method(type): type" style="text;strokeColor=none;fillColor=none;align=left;verticalAlign=top;spacingLeft=4;spacingRight=4;overflow=hidden;rotatable=0;points=[[0,0.5],[1,0.5]];portConstraint=eastwest;whiteSpace=wrap;html=1;" vertex="1" parent="y-crHEPFylXZ4RfV_5lv-30">
          <mxGeometry y="60" width="160" height="26" as="geometry" />
        </mxCell>
        <mxCell id="y-crHEPFylXZ4RfV_5lv-34" value="RetirementAccount" style="swimlane;fontStyle=1;align=center;verticalAlign=top;childLayout=stackLayout;horizontal=1;startSize=26;horizontalStack=0;resizeParent=1;resizeParentMax=0;resizeLast=0;collapsible=1;marginBottom=0;whiteSpace=wrap;html=1;" vertex="1" parent="1">
          <mxGeometry x="600" y="160" width="160" height="86" as="geometry" />
        </mxCell>
        <mxCell id="y-crHEPFylXZ4RfV_5lv-35" value="+ field: type" style="text;strokeColor=none;fillColor=none;align=left;verticalAlign=top;spacingLeft=4;spacingRight=4;overflow=hidden;rotatable=0;points=[[0,0.5],[1,0.5]];portConstraint=eastwest;whiteSpace=wrap;html=1;" vertex="1" parent="y-crHEPFylXZ4RfV_5lv-34">
          <mxGeometry y="26" width="160" height="26" as="geometry" />
        </mxCell>
        <mxCell id="y-crHEPFylXZ4RfV_5lv-36" value="" style="line;strokeWidth=1;fillColor=none;align=left;verticalAlign=middle;spacingTop=-1;spacingLeft=3;spacingRight=3;rotatable=0;labelPosition=right;points=[];portConstraint=eastwest;strokeColor=inherit;" vertex="1" parent="y-crHEPFylXZ4RfV_5lv-34">
          <mxGeometry y="52" width="160" height="8" as="geometry" />
        </mxCell>
        <mxCell id="y-crHEPFylXZ4RfV_5lv-37" value="+ method(type): type" style="text;strokeColor=none;fillColor=none;align=left;verticalAlign=top;spacingLeft=4;spacingRight=4;overflow=hidden;rotatable=0;points=[[0,0.5],[1,0.5]];portConstraint=eastwest;whiteSpace=wrap;html=1;" vertex="1" parent="y-crHEPFylXZ4RfV_5lv-34">
          <mxGeometry y="60" width="160" height="26" as="geometry" />
        </mxCell>
        <mxCell id="y-crHEPFylXZ4RfV_5lv-38" value="" style="endArrow=none;html=1;edgeStyle=orthogonalEdgeStyle;rounded=0;exitX=0.683;exitY=1.231;exitDx=0;exitDy=0;exitPerimeter=0;" edge="1" parent="1" source="y-crHEPFylXZ4RfV_5lv-12">
          <mxGeometry relative="1" as="geometry">
            <mxPoint x="430" y="202.5" as="sourcePoint" />
            <mxPoint x="590" y="202.5" as="targetPoint" />
            <Array as="points">
              <mxPoint x="469" y="203" />
            </Array>
          </mxGeometry>
        </mxCell>
        <mxCell id="y-crHEPFylXZ4RfV_5lv-39" value="parent" style="edgeLabel;resizable=0;html=1;align=left;verticalAlign=bottom;" connectable="0" vertex="1" parent="y-crHEPFylXZ4RfV_5lv-38">
          <mxGeometry x="-1" relative="1" as="geometry">
            <mxPoint y="8" as="offset" />
          </mxGeometry>
        </mxCell>
        <mxCell id="y-crHEPFylXZ4RfV_5lv-40" value="child" style="edgeLabel;resizable=0;html=1;align=right;verticalAlign=bottom;" connectable="0" vertex="1" parent="y-crHEPFylXZ4RfV_5lv-38">
          <mxGeometry x="1" relative="1" as="geometry" />
        </mxCell>
        <mxCell id="y-crHEPFylXZ4RfV_5lv-41" value="" style="endArrow=none;html=1;edgeStyle=orthogonalEdgeStyle;rounded=0;exitX=0.683;exitY=1.231;exitDx=0;exitDy=0;exitPerimeter=0;entryX=0.463;entryY=1.077;entryDx=0;entryDy=0;entryPerimeter=0;" edge="1" parent="1" target="y-crHEPFylXZ4RfV_5lv-33">
          <mxGeometry relative="1" as="geometry">
            <mxPoint x="520" y="115.5" as="sourcePoint" />
            <mxPoint x="641" y="156" as="targetPoint" />
            <Array as="points">
              <mxPoint x="520" y="120" />
              <mxPoint x="674" y="120" />
            </Array>
          </mxGeometry>
        </mxCell>
        <mxCell id="y-crHEPFylXZ4RfV_5lv-42" value="parent" style="edgeLabel;resizable=0;html=1;align=left;verticalAlign=bottom;" connectable="0" vertex="1" parent="y-crHEPFylXZ4RfV_5lv-41">
          <mxGeometry x="-1" relative="1" as="geometry">
            <mxPoint y="8" as="offset" />
          </mxGeometry>
        </mxCell>
        <mxCell id="y-crHEPFylXZ4RfV_5lv-43" value="child" style="edgeLabel;resizable=0;html=1;align=right;verticalAlign=bottom;" connectable="0" vertex="1" parent="y-crHEPFylXZ4RfV_5lv-41">
          <mxGeometry x="1" relative="1" as="geometry">
            <mxPoint y="12" as="offset" />
          </mxGeometry>
        </mxCell>
        <mxCell id="y-crHEPFylXZ4RfV_5lv-44" value="SavingAccount" style="swimlane;fontStyle=1;align=center;verticalAlign=top;childLayout=stackLayout;horizontal=1;startSize=26;horizontalStack=0;resizeParent=1;resizeParentMax=0;resizeLast=0;collapsible=1;marginBottom=0;whiteSpace=wrap;html=1;" vertex="1" parent="1">
          <mxGeometry x="370" y="-60" width="160" height="86" as="geometry" />
        </mxCell>
        <mxCell id="y-crHEPFylXZ4RfV_5lv-45" value="+ field: type" style="text;strokeColor=none;fillColor=none;align=left;verticalAlign=top;spacingLeft=4;spacingRight=4;overflow=hidden;rotatable=0;points=[[0,0.5],[1,0.5]];portConstraint=eastwest;whiteSpace=wrap;html=1;" vertex="1" parent="y-crHEPFylXZ4RfV_5lv-44">
          <mxGeometry y="26" width="160" height="26" as="geometry" />
        </mxCell>
        <mxCell id="y-crHEPFylXZ4RfV_5lv-46" value="" style="line;strokeWidth=1;fillColor=none;align=left;verticalAlign=middle;spacingTop=-1;spacingLeft=3;spacingRight=3;rotatable=0;labelPosition=right;points=[];portConstraint=eastwest;strokeColor=inherit;" vertex="1" parent="y-crHEPFylXZ4RfV_5lv-44">
          <mxGeometry y="52" width="160" height="8" as="geometry" />
        </mxCell>
        <mxCell id="y-crHEPFylXZ4RfV_5lv-47" value="+ method(type): type" style="text;strokeColor=none;fillColor=none;align=left;verticalAlign=top;spacingLeft=4;spacingRight=4;overflow=hidden;rotatable=0;points=[[0,0.5],[1,0.5]];portConstraint=eastwest;whiteSpace=wrap;html=1;" vertex="1" parent="y-crHEPFylXZ4RfV_5lv-44">
          <mxGeometry y="60" width="160" height="26" as="geometry" />
        </mxCell>
        <mxCell id="y-crHEPFylXZ4RfV_5lv-64" value="has" style="endArrow=open;html=1;endSize=12;startArrow=diamondThin;startSize=14;startFill=0;edgeStyle=orthogonalEdgeStyle;rounded=0;exitDx=0;exitDy=0;exitX=0.25;exitY=0;" edge="1" parent="1" source="y-crHEPFylXZ4RfV_5lv-13">
          <mxGeometry relative="1" as="geometry">
            <mxPoint x="394" y="272" as="sourcePoint" />
            <mxPoint x="186" y="159" as="targetPoint" />
          </mxGeometry>
        </mxCell>
        <mxCell id="y-crHEPFylXZ4RfV_5lv-65" value="0..n" style="edgeLabel;resizable=0;html=1;align=left;verticalAlign=top;" connectable="0" vertex="1" parent="y-crHEPFylXZ4RfV_5lv-64">
          <mxGeometry x="-1" relative="1" as="geometry">
            <mxPoint x="6" y="-20" as="offset" />
          </mxGeometry>
        </mxCell>
        <mxCell id="y-crHEPFylXZ4RfV_5lv-66" value="1" style="edgeLabel;resizable=0;html=1;align=right;verticalAlign=top;" connectable="0" vertex="1" parent="y-crHEPFylXZ4RfV_5lv-64">
          <mxGeometry x="1" relative="1" as="geometry" />
        </mxCell>
        <mxCell id="WG4AnXz3ScPYK9b0lDrP-1" value="Text" style="edgeLabel;html=1;align=center;verticalAlign=middle;resizable=0;points=[];" connectable="0" vertex="1" parent="y-crHEPFylXZ4RfV_5lv-64">
          <mxGeometry x="0.374" y="2" relative="1" as="geometry">
            <mxPoint as="offset" />
          </mxGeometry>
        </mxCell>
        <mxCell id="y-crHEPFylXZ4RfV_5lv-67" value="contains" style="endArrow=open;html=1;endSize=12;startArrow=diamondThin;startSize=14;startFill=0;edgeStyle=orthogonalEdgeStyle;rounded=0;exitDx=0;exitDy=0;exitX=1;exitY=0.5;entryX=0;entryY=0.5;entryDx=0;entryDy=0;" edge="1" parent="1" source="y-crHEPFylXZ4RfV_5lv-18" target="y-crHEPFylXZ4RfV_5lv-14">
          <mxGeometry relative="1" as="geometry">
            <mxPoint x="231" y="351" as="sourcePoint" />
            <mxPoint x="231" y="308" as="targetPoint" />
          </mxGeometry>
        </mxCell>
        <mxCell id="y-crHEPFylXZ4RfV_5lv-68" value="0..n" style="edgeLabel;resizable=0;html=1;align=left;verticalAlign=top;" connectable="0" vertex="1" parent="y-crHEPFylXZ4RfV_5lv-67">
          <mxGeometry x="-1" relative="1" as="geometry" />
        </mxCell>
        <mxCell id="y-crHEPFylXZ4RfV_5lv-69" value="1" style="edgeLabel;resizable=0;html=1;align=right;verticalAlign=top;" connectable="0" vertex="1" parent="y-crHEPFylXZ4RfV_5lv-67">
          <mxGeometry x="1" relative="1" as="geometry" />
        </mxCell>
        <mxCell id="y-crHEPFylXZ4RfV_5lv-71" value="&lt;strong data-end=&quot;797&quot; data-start=&quot;778&quot;&gt;EquityPortfolio&lt;/strong&gt;" style="swimlane;fontStyle=1;align=center;verticalAlign=top;childLayout=stackLayout;horizontal=1;startSize=26;horizontalStack=0;resizeParent=1;resizeParentMax=0;resizeLast=0;collapsible=1;marginBottom=0;whiteSpace=wrap;html=1;" vertex="1" parent="1">
          <mxGeometry x="650" y="320" width="160" height="86" as="geometry" />
        </mxCell>
        <mxCell id="y-crHEPFylXZ4RfV_5lv-72" value="+ field: type" style="text;strokeColor=none;fillColor=none;align=left;verticalAlign=top;spacingLeft=4;spacingRight=4;overflow=hidden;rotatable=0;points=[[0,0.5],[1,0.5]];portConstraint=eastwest;whiteSpace=wrap;html=1;" vertex="1" parent="y-crHEPFylXZ4RfV_5lv-71">
          <mxGeometry y="26" width="160" height="26" as="geometry" />
        </mxCell>
        <mxCell id="y-crHEPFylXZ4RfV_5lv-73" value="" style="line;strokeWidth=1;fillColor=none;align=left;verticalAlign=middle;spacingTop=-1;spacingLeft=3;spacingRight=3;rotatable=0;labelPosition=right;points=[];portConstraint=eastwest;strokeColor=inherit;" vertex="1" parent="y-crHEPFylXZ4RfV_5lv-71">
          <mxGeometry y="52" width="160" height="8" as="geometry" />
        </mxCell>
        <mxCell id="y-crHEPFylXZ4RfV_5lv-74" value="+ method(type): type" style="text;strokeColor=none;fillColor=none;align=left;verticalAlign=top;spacingLeft=4;spacingRight=4;overflow=hidden;rotatable=0;points=[[0,0.5],[1,0.5]];portConstraint=eastwest;whiteSpace=wrap;html=1;" vertex="1" parent="y-crHEPFylXZ4RfV_5lv-71">
          <mxGeometry y="60" width="160" height="26" as="geometry" />
        </mxCell>
        <mxCell id="y-crHEPFylXZ4RfV_5lv-79" value="&lt;strong data-end=&quot;849&quot; data-start=&quot;832&quot;&gt;BondPortfolio&lt;/strong&gt;" style="swimlane;fontStyle=1;align=center;verticalAlign=top;childLayout=stackLayout;horizontal=1;startSize=26;horizontalStack=0;resizeParent=1;resizeParentMax=0;resizeLast=0;collapsible=1;marginBottom=0;whiteSpace=wrap;html=1;" vertex="1" parent="1">
          <mxGeometry x="667" y="430" width="160" height="86" as="geometry" />
        </mxCell>
        <mxCell id="y-crHEPFylXZ4RfV_5lv-80" value="+ field: type" style="text;strokeColor=none;fillColor=none;align=left;verticalAlign=top;spacingLeft=4;spacingRight=4;overflow=hidden;rotatable=0;points=[[0,0.5],[1,0.5]];portConstraint=eastwest;whiteSpace=wrap;html=1;" vertex="1" parent="y-crHEPFylXZ4RfV_5lv-79">
          <mxGeometry y="26" width="160" height="26" as="geometry" />
        </mxCell>
        <mxCell id="y-crHEPFylXZ4RfV_5lv-81" value="" style="line;strokeWidth=1;fillColor=none;align=left;verticalAlign=middle;spacingTop=-1;spacingLeft=3;spacingRight=3;rotatable=0;labelPosition=right;points=[];portConstraint=eastwest;strokeColor=inherit;" vertex="1" parent="y-crHEPFylXZ4RfV_5lv-79">
          <mxGeometry y="52" width="160" height="8" as="geometry" />
        </mxCell>
        <mxCell id="y-crHEPFylXZ4RfV_5lv-82" value="+ method(type): type" style="text;strokeColor=none;fillColor=none;align=left;verticalAlign=top;spacingLeft=4;spacingRight=4;overflow=hidden;rotatable=0;points=[[0,0.5],[1,0.5]];portConstraint=eastwest;whiteSpace=wrap;html=1;" vertex="1" parent="y-crHEPFylXZ4RfV_5lv-79">
          <mxGeometry y="60" width="160" height="26" as="geometry" />
        </mxCell>
        <mxCell id="y-crHEPFylXZ4RfV_5lv-84" value="" style="endArrow=none;html=1;edgeStyle=orthogonalEdgeStyle;rounded=0;exitX=1;exitY=0.5;exitDx=0;exitDy=0;" edge="1" parent="1" source="y-crHEPFylXZ4RfV_5lv-14">
          <mxGeometry relative="1" as="geometry">
            <mxPoint x="520" y="300" as="sourcePoint" />
            <mxPoint x="641" y="340" as="targetPoint" />
            <Array as="points">
              <mxPoint x="494" y="330" />
              <mxPoint x="641" y="330" />
            </Array>
          </mxGeometry>
        </mxCell>
        <mxCell id="y-crHEPFylXZ4RfV_5lv-85" value="parent" style="edgeLabel;resizable=0;html=1;align=left;verticalAlign=bottom;" connectable="0" vertex="1" parent="y-crHEPFylXZ4RfV_5lv-84">
          <mxGeometry x="-1" relative="1" as="geometry">
            <mxPoint y="8" as="offset" />
          </mxGeometry>
        </mxCell>
        <mxCell id="y-crHEPFylXZ4RfV_5lv-86" value="child" style="edgeLabel;resizable=0;html=1;align=right;verticalAlign=bottom;" connectable="0" vertex="1" parent="y-crHEPFylXZ4RfV_5lv-84">
          <mxGeometry x="1" relative="1" as="geometry" />
        </mxCell>
        <mxCell id="y-crHEPFylXZ4RfV_5lv-87" value="" style="endArrow=none;html=1;edgeStyle=orthogonalEdgeStyle;rounded=0;entryX=0;entryY=0;entryDx=0;entryDy=0;" edge="1" parent="1">
          <mxGeometry relative="1" as="geometry">
            <mxPoint x="500" y="400" as="sourcePoint" />
            <mxPoint x="660" y="463" as="targetPoint" />
            <Array as="points">
              <mxPoint x="490" y="400" />
              <mxPoint x="500" y="400" />
              <mxPoint x="500" y="463" />
            </Array>
          </mxGeometry>
        </mxCell>
        <mxCell id="y-crHEPFylXZ4RfV_5lv-88" value="parent" style="edgeLabel;resizable=0;html=1;align=left;verticalAlign=bottom;" connectable="0" vertex="1" parent="y-crHEPFylXZ4RfV_5lv-87">
          <mxGeometry x="-1" relative="1" as="geometry">
            <mxPoint y="8" as="offset" />
          </mxGeometry>
        </mxCell>
        <mxCell id="y-crHEPFylXZ4RfV_5lv-89" value="child" style="edgeLabel;resizable=0;html=1;align=right;verticalAlign=bottom;" connectable="0" vertex="1" parent="y-crHEPFylXZ4RfV_5lv-87">
          <mxGeometry x="1" relative="1" as="geometry" />
        </mxCell>
        <mxCell id="WG4AnXz3ScPYK9b0lDrP-7" value="&lt;strong data-end=&quot;193&quot; data-start=&quot;169&quot;&gt;SustainablePortfolio&lt;/strong&gt;" style="swimlane;fontStyle=1;align=center;verticalAlign=top;childLayout=stackLayout;horizontal=1;startSize=26;horizontalStack=0;resizeParent=1;resizeParentMax=0;resizeLast=0;collapsible=1;marginBottom=0;whiteSpace=wrap;html=1;" vertex="1" parent="1">
          <mxGeometry x="667" y="570" width="160" height="86" as="geometry" />
        </mxCell>
        <mxCell id="WG4AnXz3ScPYK9b0lDrP-8" value="+ field: type" style="text;strokeColor=none;fillColor=none;align=left;verticalAlign=top;spacingLeft=4;spacingRight=4;overflow=hidden;rotatable=0;points=[[0,0.5],[1,0.5]];portConstraint=eastwest;whiteSpace=wrap;html=1;" vertex="1" parent="WG4AnXz3ScPYK9b0lDrP-7">
          <mxGeometry y="26" width="160" height="26" as="geometry" />
        </mxCell>
        <mxCell id="WG4AnXz3ScPYK9b0lDrP-9" value="" style="line;strokeWidth=1;fillColor=none;align=left;verticalAlign=middle;spacingTop=-1;spacingLeft=3;spacingRight=3;rotatable=0;labelPosition=right;points=[];portConstraint=eastwest;strokeColor=inherit;" vertex="1" parent="WG4AnXz3ScPYK9b0lDrP-7">
          <mxGeometry y="52" width="160" height="8" as="geometry" />
        </mxCell>
        <mxCell id="WG4AnXz3ScPYK9b0lDrP-10" value="+ method(type): type" style="text;strokeColor=none;fillColor=none;align=left;verticalAlign=top;spacingLeft=4;spacingRight=4;overflow=hidden;rotatable=0;points=[[0,0.5],[1,0.5]];portConstraint=eastwest;whiteSpace=wrap;html=1;" vertex="1" parent="WG4AnXz3ScPYK9b0lDrP-7">
          <mxGeometry y="60" width="160" height="26" as="geometry" />
        </mxCell>
        <mxCell id="WG4AnXz3ScPYK9b0lDrP-17" value="" style="endArrow=none;html=1;edgeStyle=orthogonalEdgeStyle;rounded=0;movable=1;resizable=1;rotatable=1;deletable=1;editable=1;locked=0;connectable=1;entryX=-0.011;entryY=-0.162;entryDx=0;entryDy=0;entryPerimeter=0;" edge="1" parent="1">
          <mxGeometry relative="1" as="geometry">
            <mxPoint x="432" y="411.2" as="sourcePoint" />
            <mxPoint x="650" y="639.988" as="targetPoint" />
            <Array as="points">
              <mxPoint x="430" y="401.2" />
              <mxPoint x="432" y="401.2" />
              <mxPoint x="432" y="640.2" />
            </Array>
          </mxGeometry>
        </mxCell>
        <mxCell id="WG4AnXz3ScPYK9b0lDrP-18" value="parent" style="edgeLabel;resizable=0;html=1;align=left;verticalAlign=bottom;" connectable="0" vertex="1" parent="WG4AnXz3ScPYK9b0lDrP-17">
          <mxGeometry x="-1" relative="1" as="geometry" />
        </mxCell>
        <mxCell id="WG4AnXz3ScPYK9b0lDrP-19" value="child" style="edgeLabel;resizable=0;html=1;align=right;verticalAlign=bottom;" connectable="0" vertex="1" parent="WG4AnXz3ScPYK9b0lDrP-17">
          <mxGeometry x="1" relative="1" as="geometry">
            <mxPoint x="20" y="7" as="offset" />
          </mxGeometry>
        </mxCell>
        <mxCell id="WG4AnXz3ScPYK9b0lDrP-22" value="&lt;strong data-end=&quot;560&quot; data-start=&quot;551&quot;&gt;Stock&lt;/strong&gt;Asset" style="swimlane;fontStyle=1;align=center;verticalAlign=top;childLayout=stackLayout;horizontal=1;startSize=26;horizontalStack=0;resizeParent=1;resizeParentMax=0;resizeLast=0;collapsible=1;marginBottom=0;whiteSpace=wrap;html=1;" vertex="1" parent="1">
          <mxGeometry x="50" y="510" width="160" height="86" as="geometry" />
        </mxCell>
        <mxCell id="WG4AnXz3ScPYK9b0lDrP-23" value="+ field: type" style="text;strokeColor=none;fillColor=none;align=left;verticalAlign=top;spacingLeft=4;spacingRight=4;overflow=hidden;rotatable=0;points=[[0,0.5],[1,0.5]];portConstraint=eastwest;whiteSpace=wrap;html=1;" vertex="1" parent="WG4AnXz3ScPYK9b0lDrP-22">
          <mxGeometry y="26" width="160" height="26" as="geometry" />
        </mxCell>
        <mxCell id="WG4AnXz3ScPYK9b0lDrP-24" value="" style="line;strokeWidth=1;fillColor=none;align=left;verticalAlign=middle;spacingTop=-1;spacingLeft=3;spacingRight=3;rotatable=0;labelPosition=right;points=[];portConstraint=eastwest;strokeColor=inherit;" vertex="1" parent="WG4AnXz3ScPYK9b0lDrP-22">
          <mxGeometry y="52" width="160" height="8" as="geometry" />
        </mxCell>
        <mxCell id="WG4AnXz3ScPYK9b0lDrP-25" value="+ method(type): type" style="text;strokeColor=none;fillColor=none;align=left;verticalAlign=top;spacingLeft=4;spacingRight=4;overflow=hidden;rotatable=0;points=[[0,0.5],[1,0.5]];portConstraint=eastwest;whiteSpace=wrap;html=1;" vertex="1" parent="WG4AnXz3ScPYK9b0lDrP-22">
          <mxGeometry y="60" width="160" height="26" as="geometry" />
        </mxCell>
        <mxCell id="WG4AnXz3ScPYK9b0lDrP-26" value="&lt;strong data-end=&quot;593&quot; data-start=&quot;585&quot;&gt;Bond&lt;/strong&gt;Asset" style="swimlane;fontStyle=1;align=center;verticalAlign=top;childLayout=stackLayout;horizontal=1;startSize=26;horizontalStack=0;resizeParent=1;resizeParentMax=0;resizeLast=0;collapsible=1;marginBottom=0;whiteSpace=wrap;html=1;" vertex="1" parent="1">
          <mxGeometry x="50" y="650" width="160" height="86" as="geometry" />
        </mxCell>
        <mxCell id="WG4AnXz3ScPYK9b0lDrP-27" value="+ field: type" style="text;strokeColor=none;fillColor=none;align=left;verticalAlign=top;spacingLeft=4;spacingRight=4;overflow=hidden;rotatable=0;points=[[0,0.5],[1,0.5]];portConstraint=eastwest;whiteSpace=wrap;html=1;" vertex="1" parent="WG4AnXz3ScPYK9b0lDrP-26">
          <mxGeometry y="26" width="160" height="26" as="geometry" />
        </mxCell>
        <mxCell id="WG4AnXz3ScPYK9b0lDrP-28" value="" style="line;strokeWidth=1;fillColor=none;align=left;verticalAlign=middle;spacingTop=-1;spacingLeft=3;spacingRight=3;rotatable=0;labelPosition=right;points=[];portConstraint=eastwest;strokeColor=inherit;" vertex="1" parent="WG4AnXz3ScPYK9b0lDrP-26">
          <mxGeometry y="52" width="160" height="8" as="geometry" />
        </mxCell>
        <mxCell id="WG4AnXz3ScPYK9b0lDrP-29" value="+ method(type): type" style="text;strokeColor=none;fillColor=none;align=left;verticalAlign=top;spacingLeft=4;spacingRight=4;overflow=hidden;rotatable=0;points=[[0,0.5],[1,0.5]];portConstraint=eastwest;whiteSpace=wrap;html=1;" vertex="1" parent="WG4AnXz3ScPYK9b0lDrP-26">
          <mxGeometry y="60" width="160" height="26" as="geometry" />
        </mxCell>
        <mxCell id="WG4AnXz3ScPYK9b0lDrP-30" value="&lt;strong data-end=&quot;626&quot; data-start=&quot;618&quot;&gt;FundAsset&lt;/strong&gt;" style="swimlane;fontStyle=1;align=center;verticalAlign=top;childLayout=stackLayout;horizontal=1;startSize=26;horizontalStack=0;resizeParent=1;resizeParentMax=0;resizeLast=0;collapsible=1;marginBottom=0;whiteSpace=wrap;html=1;" vertex="1" parent="1">
          <mxGeometry x="230" y="640" width="160" height="86" as="geometry" />
        </mxCell>
        <mxCell id="WG4AnXz3ScPYK9b0lDrP-31" value="+ field: type" style="text;strokeColor=none;fillColor=none;align=left;verticalAlign=top;spacingLeft=4;spacingRight=4;overflow=hidden;rotatable=0;points=[[0,0.5],[1,0.5]];portConstraint=eastwest;whiteSpace=wrap;html=1;" vertex="1" parent="WG4AnXz3ScPYK9b0lDrP-30">
          <mxGeometry y="26" width="160" height="26" as="geometry" />
        </mxCell>
        <mxCell id="WG4AnXz3ScPYK9b0lDrP-32" value="" style="line;strokeWidth=1;fillColor=none;align=left;verticalAlign=middle;spacingTop=-1;spacingLeft=3;spacingRight=3;rotatable=0;labelPosition=right;points=[];portConstraint=eastwest;strokeColor=inherit;" vertex="1" parent="WG4AnXz3ScPYK9b0lDrP-30">
          <mxGeometry y="52" width="160" height="8" as="geometry" />
        </mxCell>
        <mxCell id="WG4AnXz3ScPYK9b0lDrP-33" value="+ method(type): type" style="text;strokeColor=none;fillColor=none;align=left;verticalAlign=top;spacingLeft=4;spacingRight=4;overflow=hidden;rotatable=0;points=[[0,0.5],[1,0.5]];portConstraint=eastwest;whiteSpace=wrap;html=1;" vertex="1" parent="WG4AnXz3ScPYK9b0lDrP-30">
          <mxGeometry y="60" width="160" height="26" as="geometry" />
        </mxCell>
        <mxCell id="WG4AnXz3ScPYK9b0lDrP-34" value="" style="endArrow=none;html=1;edgeStyle=orthogonalEdgeStyle;rounded=0;" edge="1" parent="1">
          <mxGeometry relative="1" as="geometry">
            <mxPoint x="100" y="400" as="sourcePoint" />
            <mxPoint x="130" y="510" as="targetPoint" />
            <Array as="points">
              <mxPoint x="100" y="406" />
              <mxPoint x="120" y="406" />
              <mxPoint x="120" y="510" />
            </Array>
          </mxGeometry>
        </mxCell>
        <mxCell id="WG4AnXz3ScPYK9b0lDrP-35" value="parent" style="edgeLabel;resizable=0;html=1;align=left;verticalAlign=bottom;" connectable="0" vertex="1" parent="WG4AnXz3ScPYK9b0lDrP-34">
          <mxGeometry x="-1" relative="1" as="geometry">
            <mxPoint y="14" as="offset" />
          </mxGeometry>
        </mxCell>
        <mxCell id="WG4AnXz3ScPYK9b0lDrP-36" value="child" style="edgeLabel;resizable=0;html=1;align=right;verticalAlign=bottom;" connectable="0" vertex="1" parent="WG4AnXz3ScPYK9b0lDrP-34">
          <mxGeometry x="1" relative="1" as="geometry" />
        </mxCell>
        <mxCell id="WG4AnXz3ScPYK9b0lDrP-37" value="" style="endArrow=none;html=1;edgeStyle=orthogonalEdgeStyle;rounded=0;exitX=-0.046;exitY=-0.008;exitDx=0;exitDy=0;exitPerimeter=0;" edge="1" parent="1">
          <mxGeometry relative="1" as="geometry">
            <mxPoint x="2.6400000000001" y="360.0019999999999" as="sourcePoint" />
            <mxPoint x="40" y="670" as="targetPoint" />
            <Array as="points">
              <mxPoint x="30" y="360" />
              <mxPoint x="30" y="670" />
            </Array>
          </mxGeometry>
        </mxCell>
        <mxCell id="WG4AnXz3ScPYK9b0lDrP-38" value="parent" style="edgeLabel;resizable=0;html=1;align=left;verticalAlign=bottom;" connectable="0" vertex="1" parent="WG4AnXz3ScPYK9b0lDrP-37">
          <mxGeometry x="-1" relative="1" as="geometry">
            <mxPoint y="14" as="offset" />
          </mxGeometry>
        </mxCell>
        <mxCell id="WG4AnXz3ScPYK9b0lDrP-39" value="child" style="edgeLabel;resizable=0;html=1;align=right;verticalAlign=bottom;" connectable="0" vertex="1" parent="WG4AnXz3ScPYK9b0lDrP-37">
          <mxGeometry x="1" relative="1" as="geometry" />
        </mxCell>
        <mxCell id="WG4AnXz3ScPYK9b0lDrP-41" value="" style="endArrow=none;html=1;edgeStyle=orthogonalEdgeStyle;rounded=0;exitX=1;exitY=0.5;exitDx=0;exitDy=0;" edge="1" parent="1">
          <mxGeometry relative="1" as="geometry">
            <mxPoint x="210" y="402" as="sourcePoint" />
            <mxPoint x="286" y="635" as="targetPoint" />
            <Array as="points">
              <mxPoint x="200" y="398" />
              <mxPoint x="277" y="398" />
              <mxPoint x="277" y="708" />
            </Array>
          </mxGeometry>
        </mxCell>
        <mxCell id="WG4AnXz3ScPYK9b0lDrP-42" value="parent" style="edgeLabel;resizable=0;html=1;align=left;verticalAlign=bottom;" connectable="0" vertex="1" parent="WG4AnXz3ScPYK9b0lDrP-41">
          <mxGeometry x="-1" relative="1" as="geometry">
            <mxPoint y="14" as="offset" />
          </mxGeometry>
        </mxCell>
        <mxCell id="WG4AnXz3ScPYK9b0lDrP-43" value="child" style="edgeLabel;resizable=0;html=1;align=right;verticalAlign=bottom;" connectable="0" vertex="1" parent="WG4AnXz3ScPYK9b0lDrP-41">
          <mxGeometry x="1" relative="1" as="geometry" />
        </mxCell>
        <mxCell id="WG4AnXz3ScPYK9b0lDrP-44" value="Text" style="edgeLabel;html=1;align=center;verticalAlign=middle;resizable=0;points=[];" connectable="0" vertex="1" parent="WG4AnXz3ScPYK9b0lDrP-41">
          <mxGeometry x="0.2797" relative="1" as="geometry">
            <mxPoint as="offset" />
          </mxGeometry>
        </mxCell>
      </root>
    </mxGraphModel>
  </diagram>
</mxfile>
